<svg xmlns="http://www.w3.org/2000/svg" viewBox="0 0 256 256">
  <!-- LeoStudio app icon: rounded square, gradient bg, sparkle glyph. -->
  <defs>
    <linearGradient id="bg" x1="0" y1="0" x2="1" y2="1">
      <stop offset="0%" stop-color="#7c3aed"/>
      <stop offset="100%" stop-color="#3b1d6e"/>
    </linearGradient>
    <linearGradient id="spark" x1="0" y1="0" x2="0" y2="1">
      <stop offset="0%" stop-color="#ffffff"/>
      <stop offset="100%" stop-color="#e9d5ff"/>
    </linearGradient>
  </defs>
  <rect width="256" height="256" rx="56" fill="url(#bg)"/>
  <g transform="translate(64 56)" fill="url(#spark)">
    <path d="M64 0 L72 48 L120 56 L72 64 L64 112 L56 64 L8 56 L56 48 Z"/>
    <path d="M112 88 L116 102 L130 106 L116 110 L112 124 L108 110 L94 106 L108 102 Z" opacity="0.85"/>
    <path d="M22 96 L26 108 L38 112 L26 116 L22 128 L18 116 L6 112 L18 108 Z" opacity="0.75"/>
  </g>
</svg>
